# xmcd
#
# Track frame offsets:
#	187
#	25120
#	52875
#	73860
#
# Disc length: 1229 seconds
# Revision: 0
# Processed by: cddbd v1.5.2PL0 Copyright (c) Steve Scherf et al.
# Submitted via: dBpowerAMP V12.0
#
DISCID=2d04cb04
DTITLE=Boyz II Men - Doin' Just Fine
DYEAR=1998
DGENRE=R&B
TTITLE0=Doin' Just Fine [Album Version]
TTITLE1=Doin' Just Fine [Cibola Extended Club Mix]
TTITLE2=Doin' Just Fine [Soul Solution Radio Version]
TTITLE3=A Mi Me Va Bien (Doin' Just Fine) [Soul Solution Spanish Radio Edit]
EXTD=
EXTT0=
EXTT1=
EXTT2=
EXTT3=
PLAYORDER=
